<svg xmlns="http://www.w3.org/2000/svg" xmlns:xlink="http://www.w3.org/1999/xlink" width="512" zoomAndPan="magnify" viewBox="0 0 384 383.999986" height="512" preserveAspectRatio="xMidYMid meet" version="1.0"><defs><clipPath id="5f843c8d96"><path d="M 41 20 L 343 20 L 343 364 L 41 364 Z M 41 20 " clip-rule="nonzero"/></clipPath><clipPath id="53bf1bab97"><path d="M 117.488281 -24.808594 L 417.382812 149.507812 L 266.621094 408.875 L -33.273438 234.558594 Z M 117.488281 -24.808594 " clip-rule="nonzero"/></clipPath><clipPath id="b63fa48551"><path d="M 337.039062 283.054688 L 197.9375 362.203125 C 194.308594 364.269531 189.847656 364.25 186.238281 362.148438 L 47.003906 281.21875 C 43.390625 279.117188 41.167969 275.253906 41.164062 271.078125 L 41.097656 111.035156 C 41.097656 106.863281 43.335938 103.011719 46.960938 100.945312 L 186.0625 21.796875 C 189.691406 19.730469 194.148438 19.75 197.761719 21.851562 L 336.996094 102.78125 C 340.609375 104.882812 342.832031 108.746094 342.835938 112.925781 L 342.902344 272.964844 C 342.902344 277.136719 340.664062 280.988281 337.039062 283.054688 Z M 337.039062 283.054688 " clip-rule="nonzero"/></clipPath><clipPath id="7dbf9b5996"><path d="M 116.476562 -25.398438 L 418.394531 150.097656 L 267.636719 409.464844 L -34.285156 233.96875 Z M 116.476562 -25.398438 " clip-rule="nonzero"/></clipPath><clipPath id="4eda013a51"><path d="M 118.050781 -24.484375 L 416.710938 149.117188 L 265.949219 408.484375 L -32.710938 234.882812 Z M 118.050781 -24.484375 " clip-rule="nonzero"/></clipPath><linearGradient x1="-36.258504" gradientTransform="matrix(1.013154, 0.588906, -0.588906, 1.013154, 116.475139, -25.398439)" y1="128" x2="334.149761" gradientUnits="userSpaceOnUse" y2="128" id="8e45ef0ec8"><stop stop-opacity="1" stop-color="rgb(3.49884%, 55.299377%, 68.998718%)" offset="0"/><stop stop-opacity="1" stop-color="rgb(3.49884%, 55.299377%, 68.998718%)" offset="0.0625"/><stop stop-opacity="1" stop-color="rgb(3.49884%, 55.299377%, 68.998718%)" offset="0.09375"/><stop stop-opacity="1" stop-color="rgb(3.49884%, 55.299377%, 68.998718%)" offset="0.101562"/><stop stop-opacity="1" stop-color="rgb(3.712463%, 55.427551%, 69.10553%)" offset="0.105469"/><stop stop-opacity="1" stop-color="rgb(3.927612%, 55.557251%, 69.213867%)" offset="0.109375"/><stop stop-opacity="1" stop-color="rgb(4.156494%, 55.696106%, 69.329834%)" offset="0.113281"/><stop stop-opacity="1" stop-color="rgb(4.385376%, 55.834961%, 69.445801%)" offset="0.117188"/><stop stop-opacity="1" stop-color="rgb(4.614258%, 55.97229%, 69.560242%)" offset="0.121094"/><stop stop-opacity="1" stop-color="rgb(4.844666%, 56.111145%, 69.676208%)" offset="0.125"/><stop stop-opacity="1" stop-color="rgb(5.073547%, 56.25%, 69.790649%)" offset="0.128906"/><stop stop-opacity="1" stop-color="rgb(5.302429%, 56.388855%, 69.906616%)" offset="0.132812"/><stop stop-opacity="1" stop-color="rgb(5.531311%, 56.526184%, 70.021057%)" offset="0.136719"/><stop stop-opacity="1" stop-color="rgb(5.760193%, 56.665039%, 70.137024%)" offset="0.140625"/><stop stop-opacity="1" stop-color="rgb(5.989075%, 56.802368%, 70.251465%)" offset="0.144531"/><stop stop-opacity="1" stop-color="rgb(6.219482%, 56.941223%, 70.367432%)" offset="0.148438"/><stop stop-opacity="1" stop-color="rgb(6.448364%, 57.080078%, 70.483398%)" offset="0.152344"/><stop stop-opacity="1" stop-color="rgb(6.677246%, 57.218933%, 70.599365%)" offset="0.15625"/><stop stop-opacity="1" stop-color="rgb(6.906128%, 57.356262%, 70.713806%)" offset="0.160156"/><stop stop-opacity="1" stop-color="rgb(7.136536%, 57.495117%, 70.829773%)" offset="0.164062"/><stop stop-opacity="1" stop-color="rgb(7.365417%, 57.633972%, 70.944214%)" offset="0.167969"/><stop stop-opacity="1" stop-color="rgb(7.594299%, 57.772827%, 71.060181%)" offset="0.171875"/><stop stop-opacity="1" stop-color="rgb(7.823181%, 57.910156%, 71.174622%)" offset="0.175781"/><stop stop-opacity="1" stop-color="rgb(8.053589%, 58.049011%, 71.290588%)" offset="0.179688"/><stop stop-opacity="1" stop-color="rgb(8.282471%, 58.18634%, 71.405029%)" offset="0.183594"/><stop stop-opacity="1" stop-color="rgb(8.511353%, 58.325195%, 71.520996%)" offset="0.1875"/><stop stop-opacity="1" stop-color="rgb(8.740234%, 58.46405%, 71.636963%)" offset="0.191406"/><stop stop-opacity="1" stop-color="rgb(8.970642%, 58.602905%, 71.75293%)" offset="0.195312"/><stop stop-opacity="1" stop-color="rgb(9.199524%, 58.740234%, 71.867371%)" offset="0.199219"/><stop stop-opacity="1" stop-color="rgb(9.428406%, 58.879089%, 71.983337%)" offset="0.203125"/><stop stop-opacity="1" stop-color="rgb(9.657288%, 59.017944%, 72.097778%)" offset="0.207031"/><stop stop-opacity="1" stop-color="rgb(9.886169%, 59.156799%, 72.213745%)" offset="0.210937"/><stop stop-opacity="1" stop-color="rgb(10.115051%, 59.294128%, 72.328186%)" offset="0.214844"/><stop stop-opacity="1" stop-color="rgb(10.345459%, 59.432983%, 72.444153%)" offset="0.21875"/><stop stop-opacity="1" stop-color="rgb(10.574341%, 59.571838%, 72.558594%)" offset="0.222656"/><stop stop-opacity="1" stop-color="rgb(10.803223%, 59.710693%, 72.674561%)" offset="0.226562"/><stop stop-opacity="1" stop-color="rgb(11.032104%, 59.848022%, 72.789001%)" offset="0.230469"/><stop stop-opacity="1" stop-color="rgb(11.262512%, 59.986877%, 72.904968%)" offset="0.234375"/><stop stop-opacity="1" stop-color="rgb(11.491394%, 60.124207%, 73.020935%)" offset="0.238281"/><stop stop-opacity="1" stop-color="rgb(11.720276%, 60.263062%, 73.136902%)" offset="0.242187"/><stop stop-opacity="1" stop-color="rgb(11.949158%, 60.401917%, 73.251343%)" offset="0.246094"/><stop stop-opacity="1" stop-color="rgb(12.179565%, 60.540771%, 73.36731%)" offset="0.25"/><stop stop-opacity="1" stop-color="rgb(12.408447%, 60.678101%, 73.48175%)" offset="0.253906"/><stop stop-opacity="1" stop-color="rgb(12.637329%, 60.816956%, 73.597717%)" offset="0.257812"/><stop stop-opacity="1" stop-color="rgb(12.866211%, 60.955811%, 73.712158%)" offset="0.261719"/><stop stop-opacity="1" stop-color="rgb(13.096619%, 61.094666%, 73.828125%)" offset="0.265625"/><stop stop-opacity="1" stop-color="rgb(13.3255%, 61.231995%, 73.942566%)" offset="0.269531"/><stop stop-opacity="1" stop-color="rgb(13.554382%, 61.37085%, 74.058533%)" offset="0.273438"/><stop stop-opacity="1" stop-color="rgb(13.783264%, 61.509705%, 74.1745%)" offset="0.277344"/><stop stop-opacity="1" stop-color="rgb(14.012146%, 61.64856%, 74.290466%)" offset="0.28125"/><stop stop-opacity="1" stop-color="rgb(14.241028%, 61.785889%, 74.404907%)" offset="0.285156"/><stop stop-opacity="1" stop-color="rgb(14.471436%, 61.924744%, 74.520874%)" offset="0.289062"/><stop stop-opacity="1" stop-color="rgb(14.700317%, 62.062073%, 74.635315%)" offset="0.292969"/><stop stop-opacity="1" stop-color="rgb(14.929199%, 62.200928%, 74.751282%)" offset="0.296875"/><stop stop-opacity="1" stop-color="rgb(15.158081%, 62.339783%, 74.865723%)" offset="0.300781"/><stop stop-opacity="1" stop-color="rgb(15.388489%, 62.478638%, 74.981689%)" offset="0.304687"/><stop stop-opacity="1" stop-color="rgb(15.617371%, 62.615967%, 75.09613%)" offset="0.308594"/><stop stop-opacity="1" stop-color="rgb(15.846252%, 62.754822%, 75.212097%)" offset="0.3125"/><stop stop-opacity="1" stop-color="rgb(16.075134%, 62.893677%, 75.328064%)" offset="0.316406"/><stop stop-opacity="1" stop-color="rgb(16.305542%, 63.032532%, 75.444031%)" offset="0.320312"/><stop stop-opacity="1" stop-color="rgb(16.534424%, 63.169861%, 75.558472%)" offset="0.324219"/><stop stop-opacity="1" stop-color="rgb(16.763306%, 63.308716%, 75.674438%)" offset="0.328125"/><stop stop-opacity="1" stop-color="rgb(16.992188%, 63.447571%, 75.788879%)" offset="0.332031"/><stop stop-opacity="1" stop-color="rgb(17.222595%, 63.586426%, 75.904846%)" offset="0.335937"/><stop stop-opacity="1" stop-color="rgb(17.451477%, 63.723755%, 76.019287%)" offset="0.339844"/><stop stop-opacity="1" stop-color="rgb(17.680359%, 63.86261%, 76.135254%)" offset="0.34375"/><stop stop-opacity="1" stop-color="rgb(17.909241%, 63.999939%, 76.249695%)" offset="0.347656"/><stop stop-opacity="1" stop-color="rgb(18.138123%, 64.138794%, 76.365662%)" offset="0.351562"/><stop stop-opacity="1" stop-color="rgb(18.367004%, 64.277649%, 76.480103%)" offset="0.355469"/><stop stop-opacity="1" stop-color="rgb(18.597412%, 64.416504%, 76.596069%)" offset="0.359375"/><stop stop-opacity="1" stop-color="rgb(18.826294%, 64.553833%, 76.712036%)" offset="0.363281"/><stop stop-opacity="1" stop-color="rgb(19.055176%, 64.692688%, 76.828003%)" offset="0.367187"/><stop stop-opacity="1" stop-color="rgb(19.284058%, 64.831543%, 76.942444%)" offset="0.371094"/><stop stop-opacity="1" stop-color="rgb(19.514465%, 64.970398%, 77.058411%)" offset="0.375"/><stop stop-opacity="1" stop-color="rgb(19.743347%, 65.107727%, 77.172852%)" offset="0.378906"/><stop stop-opacity="1" stop-color="rgb(19.972229%, 65.246582%, 77.288818%)" offset="0.382812"/><stop stop-opacity="1" stop-color="rgb(20.201111%, 65.385437%, 77.403259%)" offset="0.386719"/><stop stop-opacity="1" stop-color="rgb(20.431519%, 65.524292%, 77.519226%)" offset="0.390625"/><stop stop-opacity="1" stop-color="rgb(20.6604%, 65.661621%, 77.633667%)" offset="0.394531"/><stop stop-opacity="1" stop-color="rgb(20.889282%, 65.800476%, 77.749634%)" offset="0.398438"/><stop stop-opacity="1" stop-color="rgb(21.118164%, 65.937805%, 77.865601%)" offset="0.402344"/><stop stop-opacity="1" stop-color="rgb(21.348572%, 66.07666%, 77.981567%)" offset="0.40625"/><stop stop-opacity="1" stop-color="rgb(21.577454%, 66.215515%, 78.096008%)" offset="0.410156"/><stop stop-opacity="1" stop-color="rgb(21.806335%, 66.35437%, 78.211975%)" offset="0.414063"/><stop stop-opacity="1" stop-color="rgb(22.035217%, 66.491699%, 78.326416%)" offset="0.417969"/><stop stop-opacity="1" stop-color="rgb(22.264099%, 66.630554%, 78.442383%)" offset="0.421875"/><stop stop-opacity="1" stop-color="rgb(22.492981%, 66.769409%, 78.556824%)" offset="0.425781"/><stop stop-opacity="1" stop-color="rgb(22.723389%, 66.908264%, 78.672791%)" offset="0.429687"/><stop stop-opacity="1" stop-color="rgb(22.952271%, 67.045593%, 78.787231%)" offset="0.433594"/><stop stop-opacity="1" stop-color="rgb(23.181152%, 67.184448%, 78.903198%)" offset="0.4375"/><stop stop-opacity="1" stop-color="rgb(23.410034%, 67.323303%, 79.019165%)" offset="0.441406"/><stop stop-opacity="1" stop-color="rgb(23.640442%, 67.462158%, 79.135132%)" offset="0.445312"/><stop stop-opacity="1" stop-color="rgb(23.869324%, 67.599487%, 79.249573%)" offset="0.449219"/><stop stop-opacity="1" stop-color="rgb(24.098206%, 67.738342%, 79.36554%)" offset="0.453125"/><stop stop-opacity="1" stop-color="rgb(24.327087%, 67.875671%, 79.47998%)" offset="0.457031"/><stop stop-opacity="1" stop-color="rgb(24.557495%, 68.014526%, 79.595947%)" offset="0.460938"/><stop stop-opacity="1" stop-color="rgb(24.786377%, 68.153381%, 79.710388%)" offset="0.464844"/><stop stop-opacity="1" stop-color="rgb(25.015259%, 68.292236%, 79.826355%)" offset="0.46875"/><stop stop-opacity="1" stop-color="rgb(25.244141%, 68.429565%, 79.940796%)" offset="0.472656"/><stop stop-opacity="1" stop-color="rgb(25.474548%, 68.56842%, 80.056763%)" offset="0.476562"/><stop stop-opacity="1" stop-color="rgb(25.70343%, 68.707275%, 80.171204%)" offset="0.480469"/><stop stop-opacity="1" stop-color="rgb(25.932312%, 68.84613%, 80.28717%)" offset="0.484375"/><stop stop-opacity="1" stop-color="rgb(26.161194%, 68.983459%, 80.403137%)" offset="0.488281"/><stop stop-opacity="1" stop-color="rgb(26.390076%, 69.122314%, 80.519104%)" offset="0.492187"/><stop stop-opacity="1" stop-color="rgb(26.618958%, 69.259644%, 80.633545%)" offset="0.496094"/><stop stop-opacity="1" stop-color="rgb(26.849365%, 69.398499%, 80.749512%)" offset="0.5"/><stop stop-opacity="1" stop-color="rgb(27.078247%, 69.537354%, 80.863953%)" offset="0.503906"/><stop stop-opacity="1" stop-color="rgb(27.307129%, 69.676208%, 80.979919%)" offset="0.507812"/><stop stop-opacity="1" stop-color="rgb(27.536011%, 69.813538%, 81.09436%)" offset="0.511719"/><stop stop-opacity="1" stop-color="rgb(27.766418%, 69.952393%, 81.210327%)" offset="0.515625"/><stop stop-opacity="1" stop-color="rgb(27.9953%, 70.091248%, 81.324768%)" offset="0.519531"/><stop stop-opacity="1" stop-color="rgb(28.224182%, 70.230103%, 81.440735%)" offset="0.523438"/><stop stop-opacity="1" stop-color="rgb(28.453064%, 70.367432%, 81.556702%)" offset="0.527344"/><stop stop-opacity="1" stop-color="rgb(28.683472%, 70.506287%, 81.672668%)" offset="0.53125"/><stop stop-opacity="1" stop-color="rgb(28.912354%, 70.645142%, 81.787109%)" offset="0.535156"/><stop stop-opacity="1" stop-color="rgb(29.141235%, 70.783997%, 81.903076%)" offset="0.539062"/><stop stop-opacity="1" stop-color="rgb(29.370117%, 70.921326%, 82.017517%)" offset="0.542969"/><stop stop-opacity="1" stop-color="rgb(29.600525%, 71.060181%, 82.133484%)" offset="0.546875"/><stop stop-opacity="1" stop-color="rgb(29.829407%, 71.19751%, 82.247925%)" offset="0.550781"/><stop stop-opacity="1" stop-color="rgb(30.058289%, 71.336365%, 82.363892%)" offset="0.554688"/><stop stop-opacity="1" stop-color="rgb(30.28717%, 71.47522%, 82.478333%)" offset="0.558594"/><stop stop-opacity="1" stop-color="rgb(30.516052%, 71.614075%, 82.594299%)" offset="0.5625"/><stop stop-opacity="1" stop-color="rgb(30.744934%, 71.751404%, 82.710266%)" offset="0.566406"/><stop stop-opacity="1" stop-color="rgb(30.975342%, 71.890259%, 82.826233%)" offset="0.570313"/><stop stop-opacity="1" stop-color="rgb(31.204224%, 72.029114%, 82.940674%)" offset="0.574219"/><stop stop-opacity="1" stop-color="rgb(31.433105%, 72.167969%, 83.056641%)" offset="0.578125"/><stop stop-opacity="1" stop-color="rgb(31.661987%, 72.305298%, 83.171082%)" offset="0.582031"/><stop stop-opacity="1" stop-color="rgb(31.892395%, 72.444153%, 83.287048%)" offset="0.585938"/><stop stop-opacity="1" stop-color="rgb(32.121277%, 72.583008%, 83.401489%)" offset="0.589844"/><stop stop-opacity="1" stop-color="rgb(32.350159%, 72.721863%, 83.517456%)" offset="0.59375"/><stop stop-opacity="1" stop-color="rgb(32.579041%, 72.859192%, 83.631897%)" offset="0.597656"/><stop stop-opacity="1" stop-color="rgb(32.809448%, 72.998047%, 83.747864%)" offset="0.601562"/><stop stop-opacity="1" stop-color="rgb(33.03833%, 73.135376%, 83.862305%)" offset="0.605469"/><stop stop-opacity="1" stop-color="rgb(33.267212%, 73.274231%, 83.978271%)" offset="0.609375"/><stop stop-opacity="1" stop-color="rgb(33.496094%, 73.413086%, 84.094238%)" offset="0.613281"/><stop stop-opacity="1" stop-color="rgb(33.726501%, 73.551941%, 84.210205%)" offset="0.617188"/><stop stop-opacity="1" stop-color="rgb(33.955383%, 73.68927%, 84.324646%)" offset="0.621094"/><stop stop-opacity="1" stop-color="rgb(34.184265%, 73.828125%, 84.440613%)" offset="0.625"/><stop stop-opacity="1" stop-color="rgb(34.413147%, 73.96698%, 84.555054%)" offset="0.628906"/><stop stop-opacity="1" stop-color="rgb(34.642029%, 74.105835%, 84.671021%)" offset="0.632813"/><stop stop-opacity="1" stop-color="rgb(34.870911%, 74.243164%, 84.785461%)" offset="0.636719"/><stop stop-opacity="1" stop-color="rgb(35.101318%, 74.382019%, 84.901428%)" offset="0.640625"/><stop stop-opacity="1" stop-color="rgb(35.3302%, 74.520874%, 85.015869%)" offset="0.644531"/><stop stop-opacity="1" stop-color="rgb(35.559082%, 74.659729%, 85.131836%)" offset="0.648438"/><stop stop-opacity="1" stop-color="rgb(35.787964%, 74.797058%, 85.247803%)" offset="0.652344"/><stop stop-opacity="1" stop-color="rgb(36.018372%, 74.935913%, 85.36377%)" offset="0.65625"/><stop stop-opacity="1" stop-color="rgb(36.247253%, 75.073242%, 85.47821%)" offset="0.660156"/><stop stop-opacity="1" stop-color="rgb(36.476135%, 75.212097%, 85.594177%)" offset="0.664062"/><stop stop-opacity="1" stop-color="rgb(36.705017%, 75.350952%, 85.708618%)" offset="0.667969"/><stop stop-opacity="1" stop-color="rgb(36.935425%, 75.489807%, 85.824585%)" offset="0.671875"/><stop stop-opacity="1" stop-color="rgb(37.164307%, 75.627136%, 85.939026%)" offset="0.675781"/><stop stop-opacity="1" stop-color="rgb(37.393188%, 75.765991%, 86.054993%)" offset="0.679688"/><stop stop-opacity="1" stop-color="rgb(37.62207%, 75.904846%, 86.169434%)" offset="0.683594"/><stop stop-opacity="1" stop-color="rgb(37.852478%, 76.043701%, 86.2854%)" offset="0.6875"/><stop stop-opacity="1" stop-color="rgb(38.08136%, 76.18103%, 86.401367%)" offset="0.691406"/><stop stop-opacity="1" stop-color="rgb(38.310242%, 76.319885%, 86.517334%)" offset="0.695313"/><stop stop-opacity="1" stop-color="rgb(38.539124%, 76.45874%, 86.631775%)" offset="0.699219"/><stop stop-opacity="1" stop-color="rgb(38.769531%, 76.597595%, 86.747742%)" offset="0.703125"/><stop stop-opacity="1" stop-color="rgb(38.998413%, 76.734924%, 86.862183%)" offset="0.707031"/><stop stop-opacity="1" stop-color="rgb(39.227295%, 76.873779%, 86.978149%)" offset="0.710938"/><stop stop-opacity="1" stop-color="rgb(39.456177%, 77.011108%, 87.09259%)" offset="0.714844"/><stop stop-opacity="1" stop-color="rgb(39.685059%, 77.149963%, 87.208557%)" offset="0.71875"/><stop stop-opacity="1" stop-color="rgb(39.91394%, 77.288818%, 87.322998%)" offset="0.722656"/><stop stop-opacity="1" stop-color="rgb(40.144348%, 77.427673%, 87.438965%)" offset="0.726562"/><stop stop-opacity="1" stop-color="rgb(40.37323%, 77.565002%, 87.553406%)" offset="0.730469"/><stop stop-opacity="1" stop-color="rgb(40.602112%, 77.703857%, 87.669373%)" offset="0.734375"/><stop stop-opacity="1" stop-color="rgb(40.830994%, 77.842712%, 87.785339%)" offset="0.738281"/><stop stop-opacity="1" stop-color="rgb(41.061401%, 77.981567%, 87.901306%)" offset="0.742188"/><stop stop-opacity="1" stop-color="rgb(41.290283%, 78.118896%, 88.015747%)" offset="0.746094"/><stop stop-opacity="1" stop-color="rgb(41.519165%, 78.257751%, 88.131714%)" offset="0.75"/><stop stop-opacity="1" stop-color="rgb(41.748047%, 78.396606%, 88.246155%)" offset="0.753906"/><stop stop-opacity="1" stop-color="rgb(41.978455%, 78.535461%, 88.362122%)" offset="0.757813"/><stop stop-opacity="1" stop-color="rgb(42.207336%, 78.672791%, 88.476562%)" offset="0.761719"/><stop stop-opacity="1" stop-color="rgb(42.436218%, 78.811646%, 88.592529%)" offset="0.765625"/><stop stop-opacity="1" stop-color="rgb(42.6651%, 78.948975%, 88.70697%)" offset="0.769531"/><stop stop-opacity="1" stop-color="rgb(42.895508%, 79.08783%, 88.822937%)" offset="0.773438"/><stop stop-opacity="1" stop-color="rgb(43.12439%, 79.226685%, 88.938904%)" offset="0.777344"/><stop stop-opacity="1" stop-color="rgb(43.353271%, 79.36554%, 89.054871%)" offset="0.78125"/><stop stop-opacity="1" stop-color="rgb(43.582153%, 79.502869%, 89.169312%)" offset="0.785156"/><stop stop-opacity="1" stop-color="rgb(43.811035%, 79.641724%, 89.285278%)" offset="0.789062"/><stop stop-opacity="1" stop-color="rgb(44.039917%, 79.780579%, 89.399719%)" offset="0.792969"/><stop stop-opacity="1" stop-color="rgb(44.270325%, 79.919434%, 89.515686%)" offset="0.796875"/><stop stop-opacity="1" stop-color="rgb(44.499207%, 80.056763%, 89.630127%)" offset="0.800781"/><stop stop-opacity="1" stop-color="rgb(44.728088%, 80.195618%, 89.746094%)" offset="0.804688"/><stop stop-opacity="1" stop-color="rgb(44.95697%, 80.332947%, 89.860535%)" offset="0.808594"/><stop stop-opacity="1" stop-color="rgb(45.187378%, 80.471802%, 89.976501%)" offset="0.8125"/><stop stop-opacity="1" stop-color="rgb(45.41626%, 80.610657%, 90.092468%)" offset="0.816406"/><stop stop-opacity="1" stop-color="rgb(45.645142%, 80.749512%, 90.208435%)" offset="0.820312"/><stop stop-opacity="1" stop-color="rgb(45.874023%, 80.886841%, 90.322876%)" offset="0.824219"/><stop stop-opacity="1" stop-color="rgb(46.104431%, 81.025696%, 90.438843%)" offset="0.828125"/><stop stop-opacity="1" stop-color="rgb(46.333313%, 81.164551%, 90.553284%)" offset="0.832031"/><stop stop-opacity="1" stop-color="rgb(46.562195%, 81.303406%, 90.66925%)" offset="0.835938"/><stop stop-opacity="1" stop-color="rgb(46.791077%, 81.440735%, 90.783691%)" offset="0.839844"/><stop stop-opacity="1" stop-color="rgb(47.021484%, 81.57959%, 90.899658%)" offset="0.84375"/><stop stop-opacity="1" stop-color="rgb(47.250366%, 81.718445%, 91.014099%)" offset="0.847656"/><stop stop-opacity="1" stop-color="rgb(47.479248%, 81.8573%, 91.130066%)" offset="0.851562"/><stop stop-opacity="1" stop-color="rgb(47.70813%, 81.994629%, 91.244507%)" offset="0.855469"/><stop stop-opacity="1" stop-color="rgb(47.937012%, 82.133484%, 91.360474%)" offset="0.859375"/><stop stop-opacity="1" stop-color="rgb(48.165894%, 82.270813%, 91.47644%)" offset="0.863281"/><stop stop-opacity="1" stop-color="rgb(48.396301%, 82.409668%, 91.592407%)" offset="0.867188"/><stop stop-opacity="1" stop-color="rgb(48.625183%, 82.548523%, 91.706848%)" offset="0.871094"/><stop stop-opacity="1" stop-color="rgb(48.854065%, 82.687378%, 91.822815%)" offset="0.875"/><stop stop-opacity="1" stop-color="rgb(49.082947%, 82.824707%, 91.937256%)" offset="0.878906"/><stop stop-opacity="1" stop-color="rgb(49.313354%, 82.963562%, 92.053223%)" offset="0.882812"/><stop stop-opacity="1" stop-color="rgb(49.542236%, 83.102417%, 92.167664%)" offset="0.886719"/><stop stop-opacity="1" stop-color="rgb(49.771118%, 83.241272%, 92.28363%)" offset="0.890625"/><stop stop-opacity="1" stop-color="rgb(49.984741%, 83.369446%, 92.390442%)" offset="0.894531"/><stop stop-opacity="1" stop-color="rgb(50.19989%, 83.499146%, 92.498779%)" offset="0.898437"/><stop stop-opacity="1" stop-color="rgb(50.19989%, 83.499146%, 92.498779%)" offset="0.90625"/><stop stop-opacity="1" stop-color="rgb(50.19989%, 83.499146%, 92.498779%)" offset="0.9375"/><stop stop-opacity="1" stop-color="rgb(50.19989%, 83.499146%, 92.498779%)" offset="1"/></linearGradient><clipPath id="837033b83d"><path d="M 115.199219 115.199219 L 268.949219 115.199219 L 268.949219 268.949219 L 115.199219 268.949219 Z M 115.199219 115.199219 " clip-rule="nonzero"/></clipPath></defs><g clip-path="url(#5f843c8d96)"><g clip-path="url(#53bf1bab97)"><g clip-path="url(#b63fa48551)"><g clip-path="url(#7dbf9b5996)"><g clip-path="url(#4eda013a51)"><path fill="url(#8e45ef0ec8)" d="M 117.316406 -111.394531 L -108.59375 277.261719 L 266.683594 495.394531 L 492.59375 106.742188 Z M 117.316406 -111.394531 " fill-rule="nonzero"/></g></g></g></g></g><g clip-path="url(#837033b83d)"><path fill="#000000" d="M 135.40625 268.949219 L 248.742188 268.949219 C 249.40625 268.949219 250.0625 268.914062 250.722656 268.851562 C 251.382812 268.785156 252.035156 268.6875 252.683594 268.558594 C 253.332031 268.425781 253.972656 268.265625 254.605469 268.074219 C 255.238281 267.882812 255.859375 267.65625 256.472656 267.40625 C 257.082031 267.152344 257.679688 266.867188 258.261719 266.554688 C 258.847656 266.242188 259.414062 265.902344 259.960938 265.535156 C 260.511719 265.167969 261.042969 264.773438 261.554688 264.355469 C 262.066406 263.933594 262.554688 263.492188 263.023438 263.023438 C 263.492188 262.554688 263.933594 262.066406 264.355469 261.554688 C 264.773438 261.042969 265.167969 260.511719 265.535156 259.960938 C 265.902344 259.414062 266.242188 258.847656 266.554688 258.261719 C 266.867188 257.679688 267.152344 257.082031 267.40625 256.472656 C 267.65625 255.859375 267.882812 255.238281 268.074219 254.605469 C 268.265625 253.972656 268.425781 253.332031 268.558594 252.683594 C 268.6875 252.035156 268.785156 251.382812 268.851562 250.722656 C 268.914062 250.0625 268.949219 249.40625 268.949219 248.742188 L 268.949219 135.40625 C 268.949219 134.746094 268.914062 134.085938 268.851562 133.425781 C 268.785156 132.769531 268.6875 132.117188 268.558594 131.46875 C 268.425781 130.816406 268.265625 130.175781 268.074219 129.542969 C 267.882812 128.910156 267.65625 128.289062 267.40625 127.679688 C 267.152344 127.066406 266.867188 126.46875 266.554688 125.886719 C 266.242188 125.304688 265.902344 124.738281 265.535156 124.1875 C 265.167969 123.636719 264.773438 123.105469 264.355469 122.59375 C 263.933594 122.082031 263.492188 121.59375 263.023438 121.125 C 262.554688 120.660156 262.066406 120.214844 261.554688 119.796875 C 261.042969 119.375 260.511719 118.980469 259.960938 118.613281 C 259.414062 118.246094 258.847656 117.90625 258.261719 117.59375 C 257.679688 117.28125 257.082031 117 256.472656 116.746094 C 255.859375 116.492188 255.238281 116.269531 254.605469 116.078125 C 253.972656 115.882812 253.332031 115.722656 252.683594 115.59375 C 252.035156 115.464844 251.382812 115.367188 250.722656 115.300781 C 250.0625 115.234375 249.40625 115.199219 248.742188 115.199219 L 135.40625 115.199219 C 134.746094 115.199219 134.085938 115.234375 133.425781 115.300781 C 132.769531 115.367188 132.117188 115.464844 131.46875 115.59375 C 130.816406 115.722656 130.175781 115.882812 129.542969 116.078125 C 128.910156 116.269531 128.289062 116.492188 127.679688 116.746094 C 127.066406 117 126.46875 117.28125 125.886719 117.59375 C 125.304688 117.90625 124.738281 118.246094 124.1875 118.613281 C 123.636719 118.980469 123.105469 119.375 122.59375 119.796875 C 122.082031 120.214844 121.59375 120.660156 121.125 121.125 C 120.660156 121.59375 120.214844 122.082031 119.796875 122.59375 C 119.375 123.105469 118.980469 123.636719 118.613281 124.1875 C 118.246094 124.738281 117.90625 125.304688 117.59375 125.886719 C 117.28125 126.46875 117 127.066406 116.746094 127.679688 C 116.492188 128.289062 116.269531 128.910156 116.078125 129.542969 C 115.882812 130.175781 115.722656 130.816406 115.59375 131.46875 C 115.464844 132.117188 115.367188 132.769531 115.300781 133.425781 C 115.234375 134.085938 115.199219 134.746094 115.199219 135.40625 L 115.199219 248.742188 C 115.199219 249.40625 115.234375 250.0625 115.300781 250.722656 C 115.367188 251.382812 115.464844 252.035156 115.59375 252.683594 C 115.722656 253.332031 115.882812 253.972656 116.078125 254.605469 C 116.269531 255.238281 116.492188 255.859375 116.746094 256.472656 C 117 257.082031 117.28125 257.679688 117.59375 258.261719 C 117.90625 258.847656 118.246094 259.414062 118.613281 259.960938 C 118.980469 260.511719 119.375 261.042969 119.796875 261.554688 C 120.214844 262.066406 120.660156 262.554688 121.125 263.023438 C 121.59375 263.492188 122.082031 263.933594 122.59375 264.355469 C 123.105469 264.773438 123.636719 265.167969 124.1875 265.535156 C 124.738281 265.902344 125.304688 266.242188 125.886719 266.554688 C 126.46875 266.867188 127.066406 267.152344 127.679688 267.40625 C 128.289062 267.65625 128.910156 267.882812 129.542969 268.074219 C 130.175781 268.265625 130.816406 268.425781 131.46875 268.558594 C 132.117188 268.6875 132.769531 268.785156 133.425781 268.851562 C 134.085938 268.914062 134.746094 268.949219 135.40625 268.949219 Z M 153.636719 137.164062 C 154.175781 137.164062 154.714844 137.191406 155.253906 137.242188 C 155.789062 137.296875 156.320312 137.375 156.851562 137.480469 C 157.378906 137.585938 157.902344 137.71875 158.417969 137.875 C 158.9375 138.03125 159.441406 138.210938 159.941406 138.417969 C 160.441406 138.625 160.925781 138.855469 161.402344 139.109375 C 161.878906 139.363281 162.339844 139.640625 162.789062 139.941406 C 163.238281 140.242188 163.671875 140.5625 164.089844 140.902344 C 164.503906 141.246094 164.90625 141.609375 165.285156 141.988281 C 165.667969 142.371094 166.027344 142.769531 166.371094 143.1875 C 166.714844 143.605469 167.035156 144.035156 167.335938 144.484375 C 167.632812 144.933594 167.910156 145.394531 168.164062 145.871094 C 168.417969 146.347656 168.648438 146.835938 168.855469 147.332031 C 169.0625 147.832031 169.246094 148.339844 169.402344 148.855469 C 169.558594 149.371094 169.6875 149.894531 169.792969 150.421875 C 169.898438 150.953125 169.976562 151.484375 170.03125 152.023438 C 170.085938 152.558594 170.109375 153.097656 170.109375 153.636719 C 170.109375 154.175781 170.085938 154.714844 170.03125 155.253906 C 169.976562 155.789062 169.898438 156.320312 169.792969 156.851562 C 169.6875 157.378906 169.558594 157.902344 169.402344 158.417969 C 169.246094 158.9375 169.0625 159.441406 168.855469 159.941406 C 168.648438 160.441406 168.417969 160.925781 168.164062 161.402344 C 167.910156 161.878906 167.632812 162.339844 167.335938 162.789062 C 167.035156 163.238281 166.714844 163.671875 166.371094 164.089844 C 166.027344 164.503906 165.667969 164.90625 165.285156 165.285156 C 164.90625 165.667969 164.503906 166.027344 164.089844 166.371094 C 163.671875 166.714844 163.238281 167.035156 162.789062 167.335938 C 162.339844 167.632812 161.878906 167.910156 161.402344 168.164062 C 160.925781 168.417969 160.441406 168.648438 159.941406 168.855469 C 159.441406 169.0625 158.9375 169.246094 158.417969 169.402344 C 157.902344 169.558594 157.378906 169.6875 156.851562 169.792969 C 156.320312 169.898438 155.789062 169.976562 155.253906 170.03125 C 154.714844 170.085938 154.175781 170.109375 153.636719 170.109375 C 153.097656 170.109375 152.558594 170.085938 152.023438 170.03125 C 151.484375 169.976562 150.953125 169.898438 150.421875 169.792969 C 149.894531 169.6875 149.371094 169.558594 148.855469 169.402344 C 148.339844 169.246094 147.832031 169.0625 147.332031 168.855469 C 146.835938 168.648438 146.347656 168.417969 145.871094 168.164062 C 145.394531 167.910156 144.933594 167.632812 144.484375 167.335938 C 144.035156 167.035156 143.605469 166.714844 143.1875 166.371094 C 142.769531 166.027344 142.371094 165.667969 141.988281 165.285156 C 141.609375 164.90625 141.246094 164.503906 140.902344 164.089844 C 140.5625 163.671875 140.242188 163.238281 139.941406 162.789062 C 139.640625 162.339844 139.363281 161.878906 139.109375 161.402344 C 138.855469 160.925781 138.625 160.441406 138.417969 159.941406 C 138.210938 159.441406 138.03125 158.9375 137.875 158.417969 C 137.71875 157.902344 137.585938 157.378906 137.480469 156.851562 C 137.375 156.320312 137.296875 155.789062 137.242188 155.253906 C 137.191406 154.714844 137.164062 154.175781 137.164062 153.636719 C 137.164062 153.097656 137.191406 152.558594 137.242188 152.023438 C 137.296875 151.484375 137.375 150.953125 137.480469 150.421875 C 137.585938 149.894531 137.71875 149.371094 137.875 148.855469 C 138.03125 148.339844 138.210938 147.832031 138.417969 147.332031 C 138.625 146.835938 138.855469 146.347656 139.109375 145.871094 C 139.363281 145.394531 139.640625 144.933594 139.941406 144.484375 C 140.242188 144.035156 140.5625 143.605469 140.902344 143.1875 C 141.246094 142.769531 141.609375 142.371094 141.988281 141.988281 C 142.371094 141.609375 142.769531 141.246094 143.1875 140.902344 C 143.605469 140.5625 144.035156 140.242188 144.484375 139.941406 C 144.933594 139.640625 145.394531 139.363281 145.871094 139.109375 C 146.347656 138.855469 146.835938 138.625 147.332031 138.417969 C 147.832031 138.210938 148.339844 138.03125 148.855469 137.875 C 149.371094 137.71875 149.894531 137.585938 150.421875 137.480469 C 150.953125 137.375 151.484375 137.296875 152.023438 137.242188 C 152.558594 137.191406 153.097656 137.164062 153.636719 137.164062 Z M 129.859375 232.542969 L 185.265625 176.945312 C 185.714844 176.492188 186.203125 176.085938 186.730469 175.726562 C 187.261719 175.371094 187.820312 175.066406 188.410156 174.820312 C 189 174.574219 189.605469 174.390625 190.234375 174.261719 C 190.859375 174.136719 191.492188 174.074219 192.128906 174.074219 C 192.769531 174.074219 193.402344 174.136719 194.027344 174.261719 C 194.652344 174.390625 195.261719 174.574219 195.851562 174.820312 C 196.4375 175.066406 197 175.371094 197.527344 175.726562 C 198.058594 176.085938 198.546875 176.492188 198.992188 176.945312 L 223.210938 201.164062 C 223.542969 201.496094 223.839844 201.863281 224.101562 202.253906 C 224.363281 202.648438 224.585938 203.0625 224.765625 203.5 C 224.945312 203.9375 225.082031 204.386719 225.171875 204.851562 C 225.265625 205.316406 225.3125 205.78125 225.3125 206.253906 C 225.3125 206.726562 225.265625 207.195312 225.171875 207.660156 C 225.082031 208.125 224.945312 208.574219 224.765625 209.011719 C 224.585938 209.449219 224.363281 209.863281 224.101562 210.257812 C 223.839844 210.648438 223.542969 211.011719 223.210938 211.347656 L 210.25 224.28125 C 209.960938 224.5625 209.707031 224.875 209.488281 225.214844 C 209.269531 225.550781 209.089844 225.910156 208.949219 226.289062 C 208.808594 226.667969 208.710938 227.058594 208.65625 227.457031 C 208.601562 227.859375 208.589844 228.261719 208.625 228.664062 C 208.660156 229.066406 208.738281 229.457031 208.859375 229.84375 C 208.980469 230.230469 209.140625 230.597656 209.34375 230.945312 C 209.542969 231.296875 209.78125 231.621094 210.054688 231.917969 C 210.328125 232.214844 210.632812 232.476562 210.964844 232.707031 C 211.523438 233.085938 212.132812 233.351562 212.789062 233.511719 C 213.445312 233.671875 214.109375 233.714844 214.78125 233.640625 C 215.453125 233.5625 216.089844 233.375 216.691406 233.074219 C 217.296875 232.773438 217.832031 232.375 218.292969 231.886719 L 236.003906 214.039062 L 253.328125 196.769531 C 253.71875 196.363281 254.191406 196.101562 254.742188 195.988281 C 255.292969 195.871094 255.832031 195.921875 256.351562 196.136719 C 256.875 196.351562 257.289062 196.695312 257.597656 197.167969 C 257.910156 197.636719 258.058594 198.15625 258.050781 198.71875 L 258.050781 244.925781 C 258.066406 245.777344 257.996094 246.621094 257.84375 247.457031 C 257.6875 248.292969 257.457031 249.105469 257.140625 249.894531 C 256.824219 250.683594 256.4375 251.433594 255.972656 252.148438 C 255.507812 252.859375 254.976562 253.519531 254.382812 254.125 C 253.789062 254.730469 253.136719 255.273438 252.433594 255.753906 C 251.730469 256.230469 250.988281 256.632812 250.207031 256.964844 C 249.421875 257.292969 248.613281 257.542969 247.78125 257.710938 C 246.949219 257.878906 246.105469 257.964844 245.257812 257.96875 L 143.09375 257.96875 C 142.003906 257.964844 140.921875 257.859375 139.851562 257.648438 C 138.777344 257.441406 137.738281 257.128906 136.726562 256.714844 C 135.714844 256.304688 134.753906 255.800781 133.839844 255.203125 C 132.925781 254.605469 132.078125 253.925781 131.296875 253.164062 C 130.515625 252.402344 129.8125 251.570312 129.191406 250.675781 C 128.570312 249.777344 128.039062 248.828125 127.601562 247.828125 C 127.164062 246.828125 126.824219 245.796875 126.585938 244.730469 C 126.347656 243.664062 126.210938 242.585938 126.183594 241.496094 C 126.253906 239.832031 126.601562 238.234375 127.234375 236.695312 C 127.867188 235.160156 128.742188 233.773438 129.859375 232.542969 Z M 129.859375 232.542969 " fill-opacity="1" fill-rule="nonzero"/></g></svg>