<svg xmlns="http://www.w3.org/2000/svg" width="512" viewBox="0 0 384 384" height="512" version="1.0"><defs><clipPath id="a"><path d="M41 20h302v344H41Zm0 0"/></clipPath><clipPath id="b"><path d="m117.488-24.809 299.895 174.317L266.62 408.875-33.273 234.559Zm0 0"/></clipPath><clipPath id="c"><path d="m337.04 283.055-139.103 79.148a11.73 11.73 0 0 1-11.699-.055l-139.234-80.93a11.75 11.75 0 0 1-5.84-10.14l-.066-160.043c0-4.172 2.238-8.023 5.863-10.09l139.102-79.148a11.73 11.73 0 0 1 11.699.055l139.234 80.93a11.75 11.75 0 0 1 5.84 10.144l.066 160.039c0 4.172-2.238 8.023-5.863 10.09m0 0"/></clipPath><clipPath id="d"><path d="m116.477-25.398 301.918 175.496-150.758 259.367-301.922-175.496Zm0 0"/></clipPath><clipPath id="e"><path d="m118.05-24.484 298.66 173.601-150.76 259.367-298.66-173.601Zm0 0"/></clipPath><clipPath id="g"><path d="M115.2 115.2h153.75v153.75H115.2Zm0 0"/></clipPath><linearGradient x1="-36.259" gradientTransform="rotate(30.168 105.357 203.382)scale(1.17188)" y1="128" x2="334.15" gradientUnits="userSpaceOnUse" y2="128" id="f"><stop stop-color="#098DB0" offset="0"/><stop stop-color="#098DB0" offset=".063"/><stop stop-color="#098DB0" offset=".094"/><stop stop-color="#098DB0" offset=".102"/><stop stop-color="#098DB0" offset=".105"/><stop stop-color="#0A8EB0" offset=".109"/><stop stop-color="#0B8EB1" offset=".113"/><stop stop-color="#0B8EB1" offset=".117"/><stop stop-color="#0C8FB1" offset=".121"/><stop stop-color="#0C8FB2" offset=".125"/><stop stop-color="#0D8FB2" offset=".129"/><stop stop-color="#0E90B2" offset=".133"/><stop stop-color="#0E90B3" offset=".137"/><stop stop-color="#0F90B3" offset=".141"/><stop stop-color="#0F91B3" offset=".145"/><stop stop-color="#1091B3" offset=".148"/><stop stop-color="#1092B4" offset=".152"/><stop stop-color="#1192B4" offset=".156"/><stop stop-color="#1292B4" offset=".16"/><stop stop-color="#1293B5" offset=".164"/><stop stop-color="#1393B5" offset=".168"/><stop stop-color="#1393B5" offset=".172"/><stop stop-color="#1494B5" offset=".176"/><stop stop-color="#1594B6" offset=".18"/><stop stop-color="#1594B6" offset=".184"/><stop stop-color="#1695B6" offset=".188"/><stop stop-color="#1695B7" offset=".191"/><stop stop-color="#1795B7" offset=".195"/><stop stop-color="#1796B7" offset=".199"/><stop stop-color="#1896B8" offset=".203"/><stop stop-color="#1996B8" offset=".207"/><stop stop-color="#1997B8" offset=".211"/><stop stop-color="#1A97B8" offset=".215"/><stop stop-color="#1A98B9" offset=".219"/><stop stop-color="#1B98B9" offset=".223"/><stop stop-color="#1C98B9" offset=".227"/><stop stop-color="#1C99BA" offset=".23"/><stop stop-color="#1D99BA" offset=".234"/><stop stop-color="#1D99BA" offset=".238"/><stop stop-color="#1E9ABA" offset=".242"/><stop stop-color="#1E9ABB" offset=".246"/><stop stop-color="#1F9ABB" offset=".25"/><stop stop-color="#209BBB" offset=".254"/><stop stop-color="#209BBC" offset=".258"/><stop stop-color="#219BBC" offset=".262"/><stop stop-color="#219CBC" offset=".266"/><stop stop-color="#229CBD" offset=".27"/><stop stop-color="#239CBD" offset=".273"/><stop stop-color="#239DBD" offset=".277"/><stop stop-color="#249DBD" offset=".281"/><stop stop-color="#249EBE" offset=".285"/><stop stop-color="#259EBE" offset=".289"/><stop stop-color="#259EBE" offset=".293"/><stop stop-color="#269FBF" offset=".297"/><stop stop-color="#279FBF" offset=".301"/><stop stop-color="#279FBF" offset=".305"/><stop stop-color="#28A0BF" offset=".309"/><stop stop-color="#28A0C0" offset=".313"/><stop stop-color="#29A0C0" offset=".316"/><stop stop-color="#2AA1C0" offset=".32"/><stop stop-color="#2AA1C1" offset=".324"/><stop stop-color="#2BA1C1" offset=".328"/><stop stop-color="#2BA2C1" offset=".332"/><stop stop-color="#2CA2C2" offset=".336"/><stop stop-color="#2DA2C2" offset=".34"/><stop stop-color="#2DA3C2" offset=".344"/><stop stop-color="#2EA3C2" offset=".348"/><stop stop-color="#2EA4C3" offset=".352"/><stop stop-color="#2FA4C3" offset=".355"/><stop stop-color="#2FA4C3" offset=".359"/><stop stop-color="#30A5C4" offset=".363"/><stop stop-color="#31A5C4" offset=".367"/><stop stop-color="#31A5C4" offset=".371"/><stop stop-color="#32A6C4" offset=".375"/><stop stop-color="#32A6C5" offset=".379"/><stop stop-color="#33A6C5" offset=".383"/><stop stop-color="#34A7C5" offset=".387"/><stop stop-color="#34A7C6" offset=".391"/><stop stop-color="#35A7C6" offset=".395"/><stop stop-color="#35A8C6" offset=".398"/><stop stop-color="#36A8C7" offset=".402"/><stop stop-color="#36A8C7" offset=".406"/><stop stop-color="#37A9C7" offset=".41"/><stop stop-color="#38A9C7" offset=".414"/><stop stop-color="#38AAC8" offset=".418"/><stop stop-color="#39AAC8" offset=".422"/><stop stop-color="#39AAC8" offset=".426"/><stop stop-color="#3AABC9" offset=".43"/><stop stop-color="#3BABC9" offset=".434"/><stop stop-color="#3BABC9" offset=".438"/><stop stop-color="#3CACC9" offset=".441"/><stop stop-color="#3CACCA" offset=".445"/><stop stop-color="#3DACCA" offset=".449"/><stop stop-color="#3DADCA" offset=".453"/><stop stop-color="#3EADCB" offset=".457"/><stop stop-color="#3FADCB" offset=".461"/><stop stop-color="#3FAECB" offset=".465"/><stop stop-color="#40AECC" offset=".469"/><stop stop-color="#40AECC" offset=".473"/><stop stop-color="#41AFCC" offset=".477"/><stop stop-color="#42AFCC" offset=".48"/><stop stop-color="#42B0CD" offset=".484"/><stop stop-color="#43B0CD" offset=".488"/><stop stop-color="#43B0CD" offset=".492"/><stop stop-color="#44B1CE" offset=".496"/><stop stop-color="#44B1CE" offset=".5"/><stop stop-color="#45B1CE" offset=".504"/><stop stop-color="#46B2CE" offset=".508"/><stop stop-color="#46B2CF" offset=".512"/><stop stop-color="#47B2CF" offset=".516"/><stop stop-color="#47B3CF" offset=".52"/><stop stop-color="#48B3D0" offset=".523"/><stop stop-color="#49B3D0" offset=".527"/><stop stop-color="#49B4D0" offset=".531"/><stop stop-color="#4AB4D1" offset=".535"/><stop stop-color="#4AB4D1" offset=".539"/><stop stop-color="#4BB5D1" offset=".543"/><stop stop-color="#4BB5D1" offset=".547"/><stop stop-color="#4CB6D2" offset=".551"/><stop stop-color="#4DB6D2" offset=".555"/><stop stop-color="#4DB6D2" offset=".559"/><stop stop-color="#4EB7D3" offset=".563"/><stop stop-color="#4EB7D3" offset=".566"/><stop stop-color="#4FB7D3" offset=".57"/><stop stop-color="#50B8D3" offset=".574"/><stop stop-color="#50B8D4" offset=".578"/><stop stop-color="#51B8D4" offset=".582"/><stop stop-color="#51B9D4" offset=".586"/><stop stop-color="#52B9D5" offset=".59"/><stop stop-color="#52B9D5" offset=".594"/><stop stop-color="#53BAD5" offset=".598"/><stop stop-color="#54BAD6" offset=".602"/><stop stop-color="#54BAD6" offset=".605"/><stop stop-color="#55BBD6" offset=".609"/><stop stop-color="#55BBD6" offset=".613"/><stop stop-color="#56BCD7" offset=".617"/><stop stop-color="#57BCD7" offset=".621"/><stop stop-color="#57BCD7" offset=".625"/><stop stop-color="#58BDD8" offset=".629"/><stop stop-color="#58BDD8" offset=".633"/><stop stop-color="#59BDD8" offset=".637"/><stop stop-color="#5ABED8" offset=".641"/><stop stop-color="#5ABED9" offset=".645"/><stop stop-color="#5BBED9" offset=".648"/><stop stop-color="#5BBFD9" offset=".652"/><stop stop-color="#5CBFDA" offset=".656"/><stop stop-color="#5CBFDA" offset=".66"/><stop stop-color="#5DC0DA" offset=".664"/><stop stop-color="#5EC0DB" offset=".668"/><stop stop-color="#5EC0DB" offset=".672"/><stop stop-color="#5FC1DB" offset=".676"/><stop stop-color="#5FC1DB" offset=".68"/><stop stop-color="#60C2DC" offset=".684"/><stop stop-color="#61C2DC" offset=".688"/><stop stop-color="#61C2DC" offset=".691"/><stop stop-color="#62C3DD" offset=".695"/><stop stop-color="#62C3DD" offset=".699"/><stop stop-color="#63C3DD" offset=".703"/><stop stop-color="#63C4DD" offset=".707"/><stop stop-color="#64C4DE" offset=".711"/><stop stop-color="#65C4DE" offset=".715"/><stop stop-color="#65C5DE" offset=".719"/><stop stop-color="#66C5DF" offset=".723"/><stop stop-color="#66C5DF" offset=".727"/><stop stop-color="#67C6DF" offset=".73"/><stop stop-color="#68C6E0" offset=".734"/><stop stop-color="#68C6E0" offset=".738"/><stop stop-color="#69C7E0" offset=".742"/><stop stop-color="#69C7E0" offset=".746"/><stop stop-color="#6AC8E1" offset=".75"/><stop stop-color="#6AC8E1" offset=".754"/><stop stop-color="#6BC8E1" offset=".758"/><stop stop-color="#6CC9E2" offset=".762"/><stop stop-color="#6CC9E2" offset=".766"/><stop stop-color="#6DC9E2" offset=".77"/><stop stop-color="#6DCAE2" offset=".773"/><stop stop-color="#6ECAE3" offset=".777"/><stop stop-color="#6FCAE3" offset=".781"/><stop stop-color="#6FCBE3" offset=".785"/><stop stop-color="#70CBE4" offset=".789"/><stop stop-color="#70CBE4" offset=".793"/><stop stop-color="#71CCE4" offset=".797"/><stop stop-color="#71CCE5" offset=".801"/><stop stop-color="#72CCE5" offset=".805"/><stop stop-color="#73CDE5" offset=".809"/><stop stop-color="#73CDE5" offset=".813"/><stop stop-color="#74CEE6" offset=".816"/><stop stop-color="#74CEE6" offset=".82"/><stop stop-color="#75CEE6" offset=".824"/><stop stop-color="#76CFE7" offset=".828"/><stop stop-color="#76CFE7" offset=".832"/><stop stop-color="#77CFE7" offset=".836"/><stop stop-color="#77D0E7" offset=".84"/><stop stop-color="#78D0E8" offset=".844"/><stop stop-color="#78D0E8" offset=".848"/><stop stop-color="#79D1E8" offset=".852"/><stop stop-color="#7AD1E9" offset=".855"/><stop stop-color="#7AD1E9" offset=".859"/><stop stop-color="#7BD2E9" offset=".863"/><stop stop-color="#7BD2EA" offset=".867"/><stop stop-color="#7CD2EA" offset=".871"/><stop stop-color="#7DD3EA" offset=".875"/><stop stop-color="#7DD3EA" offset=".879"/><stop stop-color="#7ED4EB" offset=".883"/><stop stop-color="#7ED4EB" offset=".887"/><stop stop-color="#7FD4EB" offset=".891"/><stop stop-color="#7FD5EC" offset=".895"/><stop stop-color="#80D5EC" offset=".898"/><stop stop-color="#80D5EC" offset=".906"/><stop stop-color="#80D5EC" offset=".938"/><stop stop-color="#80D5EC" offset="1"/></linearGradient></defs><g clip-path="url(#a)"><g clip-path="url(#b)"><g clip-path="url(#c)"><g clip-path="url(#d)"><g clip-path="url(#e)"><path fill="url(#f)" d="m117.316-111.395-225.91 388.657 375.278 218.133 225.91-388.653Zm0 0"/></g></g></g></g></g><g clip-path="url(#g)"><path d="M135.406 268.95h113.336a21 21 0 0 0 1.98-.098q.99-.1 1.962-.293.972-.198 1.921-.485a21 21 0 0 0 1.868-.668q.915-.382 1.789-.851a20.5 20.5 0 0 0 3.293-2.2q.766-.63 1.468-1.332c.47-.468.91-.957 1.332-1.468a20.5 20.5 0 0 0 3.051-5.082c.25-.614.477-1.235.668-1.868q.287-.948.485-1.921.192-.972.293-1.961c.062-.66.097-1.317.097-1.98V135.405c0-.66-.035-1.32-.097-1.98a21 21 0 0 0-.293-1.957 21 21 0 0 0-.485-1.926 20 20 0 0 0-1.52-3.656 20.5 20.5 0 0 0-2.2-3.293q-.629-.767-1.33-1.469a20.6 20.6 0 0 0-3.063-2.512 20.2 20.2 0 0 0-11.219-3.414H135.406q-.99 0-1.98.102-.984.1-1.957.293-.978.193-1.926.484a20 20 0 0 0-1.863.668q-.92.38-1.793.848t-1.7 1.02q-.826.55-1.593 1.183-.767.629-1.469 1.328a20.6 20.6 0 0 0-2.512 3.063q-.55.825-1.02 1.699-.467.873-.847 1.793a20 20 0 0 0-.668 1.863 19 19 0 0 0-.484 1.926q-.195.972-.293 1.957-.101.99-.102 1.98v113.336a20.6 20.6 0 0 0 .395 3.941q.193.974.484 1.922a20 20 0 0 0 2.535 5.356q.55.825 1.184 1.594.629.766 1.328 1.468c.469.47.957.91 1.469 1.332a20.5 20.5 0 0 0 5.086 3.051c.61.25 1.23.477 1.863.668q.948.287 1.926.485.972.192 1.957.293.99.095 1.98.097m18.23-131.786q.81 0 1.618.078a17 17 0 0 1 1.598.238 16.7 16.7 0 0 1 4.55 1.63q.714.38 1.387.831.675.451 1.3.961a16.6 16.6 0 0 1 3.246 3.582q.447.673.83 1.387.38.716.69 1.461.312.75.547 1.523a16.7 16.7 0 0 1 .63 3.168c.054.536.077 1.075.077 1.614a16 16 0 0 1-.316 3.215q-.157.791-.39 1.566a16.6 16.6 0 0 1-3.031 5.672c-.345.414-.704.816-1.087 1.195a16.5 16.5 0 0 1-2.496 2.05q-.673.447-1.387.83a16.6 16.6 0 0 1-2.984 1.237 16.7 16.7 0 0 1-3.164.63 16 16 0 0 1-1.617.077c-.54 0-1.078-.023-1.614-.078a16.7 16.7 0 0 1-3.168-.629 16.5 16.5 0 0 1-2.984-1.238 17 17 0 0 1-1.387-.828q-.672-.45-1.297-.965a16.6 16.6 0 0 1-2.285-2.281 18 18 0 0 1-.96-1.3q-.452-.674-.833-1.388a16 16 0 0 1-1.234-2.984q-.236-.775-.395-1.566a17 17 0 0 1-.238-1.598q-.077-.81-.078-1.617 0-.81.078-1.614.082-.806.238-1.601a16.7 16.7 0 0 1 1.63-4.55q.38-.714.831-1.388.451-.672.961-1.297.517-.625 1.086-1.199.574-.57 1.2-1.086.624-.51 1.296-.96.673-.452 1.387-.833.716-.38 1.461-.691.75-.31 1.523-.543.775-.236 1.567-.395a17 17 0 0 1 1.601-.238 17 17 0 0 1 1.614-.078m-23.777 95.379 55.407-55.598q.673-.68 1.464-1.218a10 10 0 0 1 1.68-.907 9.65 9.65 0 0 1 10.582 2.125l24.219 24.22a7.2 7.2 0 0 1 1.555 2.335q.27.656.406 1.352a7.1 7.1 0 0 1 0 2.808q-.136.696-.406 1.352a7.2 7.2 0 0 1-1.555 2.336L210.25 224.28q-.434.423-.762.934a5.5 5.5 0 0 0-.863 3.45 5.54 5.54 0 0 0 1.43 3.253q.41.445.91.789a5.6 5.6 0 0 0 1.824.805 5.7 5.7 0 0 0 5.504-1.625l17.71-17.848 17.325-17.27q.586-.61 1.414-.78a2.67 2.67 0 0 1 1.61.148q.784.322 1.246 1.031c.312.469.46.988.453 1.55v46.208a12.8 12.8 0 0 1-.91 4.969q-.474 1.183-1.168 2.253a12.9 12.9 0 0 1-3.54 3.606q-1.054.714-2.226 1.21a12.9 12.9 0 0 1-4.95 1.005H143.095a17 17 0 0 1-6.367-1.254 16.8 16.8 0 0 1-5.43-3.55 16.94 16.94 0 0 1-4.71-8.434 16.7 16.7 0 0 1-.403-3.235 14.17 14.17 0 0 1 3.676-8.953m0 0"/></g></svg>